<svg width="575" height="100" viewBox="0 0 575 100" fill="none" xmlns="http://www.w3.org/2000/svg">
<path d="M75.6615 47.952H23.4375V58.032C26.7015 58.096 31.5975 58.128 38.1255 58.128C49.3895 58.128 60.8455 57.936 72.4935 57.552V76.368C60.8455 75.92 48.5575 75.696 35.6295 75.696C30.2535 75.696 26.1895 75.728 23.4375 75.792V99.696H0.781494C1.29349 87.28 1.54949 75.664 1.54949 64.848C1.54949 54.032 1.29349 42.416 0.781494 30H75.6615V47.952Z" fill="white"/>
<path d="M133.487 99.696C130.479 94.256 125.487 85.936 118.511 74.736L107.279 85.872V99.696H83.3752C83.8872 87.28 84.1432 75.664 84.1432 64.848C84.1432 54.032 83.8872 42.416 83.3752 30H107.279V58.128C119.055 46.48 127.439 37.104 132.431 30H163.535L133.295 59.952C137.775 66.224 142.799 73.04 148.367 80.4C153.999 87.76 159.087 94.192 163.631 99.696H133.487Z" fill="white"/>
<path d="M194.737 80.304C213.297 80.176 228.657 79.856 240.817 79.344C239.985 82.608 239.473 85.744 239.281 88.752C239.089 91.76 238.993 95.408 238.993 99.696H171.313C171.825 87.28 172.081 75.664 172.081 64.848C172.081 54.032 171.825 42.416 171.313 30H194.737V80.304Z" fill="white"/>
<path d="M302.85 65.04C317.442 65.04 324.738 69.68 324.738 78.96C324.738 83.312 323.746 87.024 321.762 90.096C319.778 93.104 316.226 95.472 311.106 97.2C305.986 98.864 298.882 99.696 289.794 99.696H246.594C247.106 87.28 247.362 75.664 247.362 64.848C247.362 54.032 247.106 42.416 246.594 30H269.154V30.096H289.602C297.538 30.096 303.778 30.768 308.322 32.112C312.93 33.392 316.162 35.28 318.018 37.776C319.938 40.272 320.898 43.44 320.898 47.28C320.898 51.184 319.522 54.672 316.77 57.744C314.082 60.752 309.442 63.184 302.85 65.04ZM269.154 47.568V56.496H287.586C291.554 56.496 294.306 56.144 295.842 55.44C297.442 54.736 298.242 53.456 298.242 51.6C298.242 50.128 297.41 49.104 295.746 48.528C294.146 47.888 291.426 47.568 287.586 47.568H269.154ZM287.586 82.128C290.914 82.128 293.442 82 295.17 81.744C296.962 81.424 298.242 80.912 299.01 80.208C299.778 79.44 300.162 78.416 300.162 77.136C300.162 75.472 299.234 74.288 297.378 73.584C295.586 72.816 292.322 72.432 287.586 72.432H269.154V82.128H287.586Z" fill="white"/>
<path d="M335 32C335 14.3269 349.327 0 367 0H543C560.673 0 575 14.3269 575 32C575 49.6731 560.673 64 543 64H367C349.327 64 335 49.6731 335 32Z" fill="#FF5858"/>
<path d="M391.946 49C391.439 47.48 390.759 45.5733 389.906 43.28H377.146L375.146 49H365.106L376.306 19.96H391.026L402.306 49H391.946ZM387.626 37.04C386.612 34.24 385.572 31.44 384.506 28.64L383.546 26.04C382.612 28.4667 381.239 32.1333 379.426 37.04H387.626Z" fill="white"/>
<path d="M416.459 19.52C421.472 19.52 425.432 20.1333 428.339 21.36C431.245 22.56 433.272 24.24 434.419 26.4C435.592 28.5333 436.179 31.16 436.179 34.28C436.179 37.24 435.512 39.8267 434.179 42.04C432.845 44.2533 430.845 45.9733 428.179 47.2C425.512 48.4 422.232 49 418.339 49C415.965 49 413.552 49 411.099 49C408.645 49 406.165 48.9867 403.659 48.96C403.872 43.7067 403.979 38.8133 403.979 34.28C403.979 29.6933 403.872 24.9067 403.659 19.92C406.832 19.6533 411.099 19.52 416.459 19.52ZM419.459 41.04C421.939 41.04 423.592 40.44 424.419 39.24C425.245 38.04 425.659 36.3867 425.659 34.28C425.659 32.2533 425.219 30.6133 424.339 29.36C423.485 28.1067 421.859 27.48 419.459 27.48C416.872 27.48 414.939 27.56 413.659 27.72V41.04H419.459Z" fill="white"/>
<path d="M475.981 19.96L479.101 49H468.741L468.101 28.28L464.101 49H453.621L449.541 28.44L448.941 49H438.581L441.701 19.96H455.301L458.781 38.88L461.821 19.96H475.981Z" fill="white"/>
<path d="M505.531 27.92C502.358 27.76 500.011 27.6667 498.491 27.64V41.32C500.038 41.2933 502.385 41.2 505.531 41.04V49H482.292V41.04C485.358 41.2 487.692 41.2933 489.292 41.32V27.64C487.692 27.6667 485.358 27.76 482.292 27.92V19.96H505.531V27.92Z" fill="white"/>
<path d="M542.297 20C542.11 24.5067 542.017 29.3333 542.017 34.48C542.017 39.6533 542.11 44.4933 542.297 49H527.977L518.297 27.16L519.017 49H508.737C508.95 43.8267 509.057 38.9867 509.057 34.48C509.057 30 508.95 25.1733 508.737 20H523.457L533.177 42.44L532.497 20H542.297Z" fill="white"/>
</svg>
