<svg width="385" height="91" viewBox="0 0 385 91" fill="none" xmlns="http://www.w3.org/2000/svg">
<path d="M75.4017 38.952H23.1777V49.032C26.4417 49.096 31.3377 49.128 37.8657 49.128C49.1297 49.128 60.5857 48.936 72.2337 48.552V67.368C60.5857 66.92 48.2977 66.696 35.3697 66.696C29.9937 66.696 25.9297 66.728 23.1777 66.792V90.696H0.521729C1.03373 78.28 1.28973 66.664 1.28973 55.848C1.28973 45.032 1.03373 33.416 0.521729 21H75.4017V38.952Z" fill="white"/>
<path d="M133.227 90.696C130.219 85.256 125.227 76.936 118.251 65.736L107.019 76.872V90.696H83.1155C83.6275 78.28 83.8835 66.664 83.8835 55.848C83.8835 45.032 83.6275 33.416 83.1155 21H107.019V49.128C118.795 37.48 127.179 28.104 132.171 21H163.275L133.035 50.952C137.515 57.224 142.539 64.04 148.107 71.4C153.739 78.76 158.827 85.192 163.371 90.696H133.227Z" fill="white"/>
<path d="M194.477 71.304C213.037 71.176 228.397 70.856 240.557 70.344C239.725 73.608 239.213 76.744 239.021 79.752C238.829 82.76 238.733 86.408 238.733 90.696H171.053C171.565 78.28 171.821 66.664 171.821 55.848C171.821 45.032 171.565 33.416 171.053 21H194.477V71.304Z" fill="white"/>
<path fill-rule="evenodd" clip-rule="evenodd" d="M302.59 56.04C317.182 56.04 324.478 60.68 324.478 69.96C324.478 74.312 323.486 78.024 321.502 81.096C319.518 84.104 315.966 86.472 310.846 88.2C305.726 89.864 298.622 90.696 289.534 90.696H246.334C246.846 78.28 247.102 66.664 247.102 55.848C247.102 45.032 246.846 33.416 246.334 21H268.894V21.096H289.342C297.278 21.096 303.518 21.768 308.062 23.112C312.67 24.392 315.902 26.28 317.758 28.776C319.678 31.272 320.638 34.44 320.638 38.28C320.638 42.184 319.262 45.672 316.51 48.744C313.822 51.752 309.182 54.184 302.59 56.04ZM268.894 38.568V47.496H287.326C291.294 47.496 294.046 47.144 295.582 46.44C297.182 45.736 297.982 44.456 297.982 42.6C297.982 41.128 297.15 40.104 295.486 39.528C293.886 38.888 291.166 38.568 287.326 38.568H268.894ZM287.326 73.128C290.654 73.128 293.182 73 294.91 72.744C296.702 72.424 297.982 71.912 298.75 71.208C299.518 70.44 299.902 69.416 299.902 68.136C299.902 66.472 298.974 65.288 297.118 64.584C295.326 63.816 292.062 63.432 287.326 63.432H268.894V73.128H287.326Z" fill="white"/>
<path d="M384.478 25.696C384.478 39.5031 373.285 50.696 359.478 50.696C345.671 50.696 334.478 39.5031 334.478 25.696C334.478 11.8889 345.671 0.695984 359.478 0.695984C373.285 0.695984 384.478 11.8889 384.478 25.696Z" fill="#FF5858"/>
</svg>
