<svg width="641" height="91" viewBox="0 0 641 91" fill="none" xmlns="http://www.w3.org/2000/svg">
<path d="M74.9106 38.952H22.6653V49.032C25.9306 49.096 30.8286 49.128 37.3593 49.128C48.6279 49.128 60.0886 48.936 71.7413 48.552V67.368C60.0886 66.92 47.7956 66.696 34.8623 66.696C29.4841 66.696 25.4184 66.728 22.6653 66.792V90.696H0C0.512209 78.28 0.768314 66.664 0.768314 55.848C0.768314 45.032 0.512209 33.416 0 21H74.9106V38.952Z" fill="white"/>
<path d="M137.507 90.696C136.291 87.048 134.658 82.472 132.609 76.968H132.563L127.081 61.992H127.135C124.702 55.272 122.205 48.552 119.644 41.832L117.339 35.592C115.098 41.416 111.801 50.216 107.447 61.992H107.491L102.01 76.968H101.973L101.177 79.244L100.279 81.696H100.319L97.1707 90.696H73.0649L99.9559 21H135.298L162.381 90.696H137.507Z" fill="white"/>
<path d="M215.763 90.696C212.754 85.256 207.759 76.936 200.781 65.736L189.544 76.872V90.696H165.63C166.142 78.28 166.399 66.664 166.399 55.848C166.399 45.032 166.142 33.416 165.63 21H189.544V49.128C201.325 37.48 209.712 28.104 214.706 21H245.823L215.571 50.952C220.053 57.224 225.079 64.04 230.649 71.4C236.283 78.76 241.373 85.192 245.919 90.696H215.763Z" fill="white"/>
<path d="M276.269 73.128C300.599 73 318.238 72.648 329.187 72.072C328.738 74.696 328.45 77.416 328.322 80.232C328.258 82.984 328.226 86.472 328.226 90.696H253.604C254.116 78.28 254.372 66.664 254.372 55.848C254.372 45.032 254.116 33.416 253.604 21H328.226V38.376H276.269V47.592C279.342 47.656 283.888 47.688 289.907 47.688C300.087 47.688 310.619 47.496 321.504 47.112V63.624C310.619 63.24 300.087 63.048 289.907 63.048C283.888 63.048 279.342 63.08 276.269 63.144V73.128Z" fill="white"/>
<path d="M360.321 71.304C378.889 71.176 394.255 70.856 406.42 70.344C405.588 73.608 405.076 76.744 404.884 79.752C404.692 82.76 404.596 86.408 404.596 90.696H336.888C337.4 78.28 337.656 66.664 337.656 55.848C337.656 45.032 337.4 33.416 336.888 21H360.321V71.304Z" fill="white"/>
<path d="M474.676 90.696C473.46 87.048 471.827 82.472 469.778 76.968H469.701L464.219 61.992H464.304C461.871 55.272 459.374 48.552 456.813 41.832L454.508 35.592C452.267 41.416 448.97 50.216 444.616 61.992H444.629L439.148 76.968H439.142L439.02 77.3158L437.417 81.696H437.488L434.34 90.696H410.234L437.125 21H472.468L499.551 90.696H474.676Z" fill="white"/>
<path fill-rule="evenodd" clip-rule="evenodd" d="M559.078 56.04C573.676 56.04 580.975 60.68 580.975 69.96C580.975 74.312 579.983 78.024 577.998 81.096C576.013 84.104 572.46 86.472 567.338 88.2C562.216 89.864 555.109 90.696 546.017 90.696H502.799C503.312 78.28 503.568 66.664 503.568 55.848C503.568 45.032 503.312 33.416 502.799 21H525.369V21.096H545.825C553.764 21.096 560.007 21.768 564.553 23.112C569.163 24.392 572.396 26.28 574.253 28.776C576.173 31.272 577.134 34.44 577.134 38.28C577.134 42.184 575.757 45.672 573.004 48.744C570.315 51.752 565.673 54.184 559.078 56.04ZM525.369 38.568V47.496H543.808C547.778 47.496 550.531 47.144 552.068 46.44C553.668 45.736 554.469 44.456 554.469 42.6C554.469 41.128 553.636 40.104 551.971 39.528C550.371 38.888 547.65 38.568 543.808 38.568H525.369ZM543.808 73.128C547.138 73.128 549.667 73 551.395 72.744C553.188 72.424 554.469 71.912 555.237 71.208C556.005 70.44 556.389 69.416 556.389 68.136C556.389 66.472 555.461 65.288 553.604 64.584C551.811 63.816 548.546 63.432 543.808 63.432H525.369V73.128H543.808Z" fill="white"/>
<path d="M641 25.696C641 39.5031 629.803 50.696 615.99 50.696C602.177 50.696 590.98 39.5031 590.98 25.696C590.98 11.8889 602.177 0.695999 615.99 0.695999C629.803 0.695999 641 11.8889 641 25.696Z" fill="#FF5858"/>
</svg>
