<svg width="24" height="24" viewBox="0 0 24 24" fill="none" xmlns="http://www.w3.org/2000/svg">
<path d="M21 9.57143V7.96812C21 6.92917 21 6.40971 20.7988 6.01289C20.6218 5.66383 20.3394 5.38004 19.992 5.20219C19.5971 5 19.0801 5 18.0462 5H5.95385C4.9199 5 4.40293 5 4.00802 5.20219C3.66064 5.38004 3.37821 5.66383 3.20122 6.01289C3 6.40971 3 6.92917 3 7.96812V9.57143M21 9.57143V18.0319C21 19.0708 21 19.5903 20.7988 19.9871C20.6218 20.3362 20.3394 20.62 19.992 20.7978C19.5971 21 19.0801 21 18.0462 21H5.95385C4.91991 21 4.40293 21 4.00802 20.7978C3.66064 20.62 3.37821 20.3362 3.20122 19.9871C3 19.5903 3 19.0708 3 18.0319V9.57143M21 9.57143H3" stroke="white" stroke-width="1.5"/>
<path d="M8 3V7M16 3V7" stroke="white" stroke-width="1.5" stroke-linecap="round"/>
</svg>
