<svg width="24" height="24" viewBox="0 0 24 24" fill="none" xmlns="http://www.w3.org/2000/svg">
<path d="M21.75 9.42857V7.7C21.75 6.57989 21.75 6.01984 21.532 5.59202C21.3403 5.21569 21.0343 4.90973 20.658 4.71799C20.2302 4.5 19.6701 4.5 18.55 4.5H5.45C4.32989 4.5 3.76984 4.5 3.34202 4.71799C2.96569 4.90973 2.65973 5.21569 2.46799 5.59202C2.25 6.01984 2.25 6.57989 2.25 7.7V9.42857M21.75 9.42857V18.55C21.75 19.6701 21.75 20.2302 21.532 20.658C21.3403 21.0343 21.0343 21.3403 20.658 21.532C20.2302 21.75 19.6701 21.75 18.55 21.75H5.45C4.3299 21.75 3.76984 21.75 3.34202 21.532C2.96569 21.3403 2.65973 21.0343 2.46799 20.658C2.25 20.2302 2.25 19.6701 2.25 18.55V9.42857M21.75 9.42857H2.25" stroke="white" stroke-width="1.5"/>
<path d="M7.5 2.25L7.5 6.75M16.5 2.25L16.5 6.75" stroke="white" stroke-width="1.5" stroke-linecap="round"/>
<rect x="15.75" y="17.25" width="4.5" height="3" rx="1" fill="white"/>
</svg>
