<svg width="24" height="24" viewBox="0 0 24 24" fill="none" xmlns="http://www.w3.org/2000/svg">
<path d="M10.56 16L9.59998 12" stroke="white" stroke-width="1.5" stroke-linecap="round"/>
<path d="M8.0291 3L5.76001 6M15.971 3L18.24 6" stroke="white" stroke-width="1.5" stroke-linecap="round"/>
<path d="M13.4399 16L14.3999 12" stroke="white" stroke-width="1.5" stroke-linecap="round"/>
<path d="M2.88 9C3.59172 9 4.20918 9.51189 4.36891 10.2344L5.84211 16.8977C6.17111 18.3857 6.3356 19.1298 6.86045 19.5649C7.3853 20 8.11825 20 9.58416 20H14.4158C15.8818 20 16.6147 20 17.1396 19.5649C17.6644 19.1298 17.8289 18.3857 18.1579 16.8977L19.6311 10.2344C19.7908 9.51189 20.4083 9 21.12 9" stroke="white" stroke-width="1.5" stroke-linecap="round"/>
<path d="M20.64 9H3.36004C2.56475 9 1.92004 8.32843 1.92004 7.5C1.92004 6.67157 2.56475 6 3.36004 6H20.64C21.4353 6 22.08 6.67157 22.08 7.5C22.08 8.32843 21.4353 9 20.64 9Z" stroke="white" stroke-width="1.5" stroke-linecap="round"/>
</svg>
