<svg width="24" height="24" viewBox="0 0 24 24" fill="none" xmlns="http://www.w3.org/2000/svg">
<path d="M19.5 12C19.5 17.018 14.0117 20.4027 12.4249 21.2764C12.1568 21.424 11.8432 21.424 11.5751 21.2764C9.98831 20.4027 4.5 17.018 4.5 12C4.5 7.5 8.13401 4.5 12 4.5C16 4.5 19.5 7.5 19.5 12Z" stroke="#1C1C1C" stroke-width="1.5"/>
<path d="M12 15.25C13.7949 15.25 15.25 13.7949 15.25 12C15.25 10.2051 13.7949 8.75 12 8.75C10.2051 8.75 8.75 10.2051 8.75 12C8.75 13.7949 10.2051 15.25 12 15.25Z" stroke="#1C1C1C" stroke-width="1.5"/>
</svg>
