<svg width="24" height="24" viewBox="0 0 24 24" fill="none" xmlns="http://www.w3.org/2000/svg">
<path d="M12 20.5C16.6944 20.5 20.5 16.6944 20.5 12C20.5 7.30558 16.6944 3.5 12 3.5C7.30558 3.5 3.5 7.30558 3.5 12C3.5 16.6944 7.30558 20.5 12 20.5Z" stroke="#999999" stroke-width="1.5"/>
<path d="M12 18.75C12.4142 18.75 12.75 18.4142 12.75 18C12.75 17.5858 12.4142 17.25 12 17.25C11.5858 17.25 11.25 17.5858 11.25 18C11.25 18.4142 11.5858 18.75 12 18.75Z" fill="#999999"/>
<path d="M12 16V15.1432C12 14.429 12.357 13.762 12.9512 13.3659L13.5497 12.9669C14.4558 12.3628 15 11.3459 15 10.2569V10C15 8.34315 13.6569 7 12 7C10.3431 7 9 8.34315 9 10" stroke="#999999" stroke-width="1.5" stroke-linecap="round"/>
</svg>
