<svg width="24" height="24" viewBox="0 0 24 24" fill="none" xmlns="http://www.w3.org/2000/svg">
<path d="M3 6.2C3 5.07989 3 4.51984 3.21799 4.09202C3.40973 3.71569 3.71569 3.40973 4.09202 3.21799C4.51984 3 5.0799 3 6.2 3H17.8C18.9201 3 19.4802 3 19.908 3.21799C20.2843 3.40973 20.5903 3.71569 20.782 4.09202C21 4.51984 21 5.0799 21 6.2V17.8C21 18.9201 21 19.4802 20.782 19.908C20.5903 20.2843 20.2843 20.5903 19.908 20.782C19.4802 21 18.9201 21 17.8 21H6.2C5.07989 21 4.51984 21 4.09202 20.782C3.71569 20.5903 3.40973 20.2843 3.21799 19.908C3 19.4802 3 18.9201 3 17.8V6.2Z" stroke="white" stroke-width="1.5" stroke-linecap="round"/>
<path d="M12.5 14.5294C12.5 16.6878 10.3603 18.204 9.42687 18.7628C9.16233 18.9211 8.83767 18.9211 8.57313 18.7628C7.63974 18.204 5.5 16.6878 5.5 14.5294C5.5 12.4118 7.19587 11 9 11C10.8667 11 12.5 12.4118 12.5 14.5294Z" stroke="white" stroke-width="1.5"/>
<path d="M18.5 21.5L12.5 6.5" stroke="white" stroke-width="1.5"/>
<path d="M21.5 4.5L2.5 8.5" stroke="white" stroke-width="1.5"/>
<path d="M9 16C9.55228 16 10 15.5523 10 15C10 14.4477 9.55228 14 9 14C8.44772 14 8 14.4477 8 15C8 15.5523 8.44772 16 9 16Z" fill="white"/>
</svg>
