<svg width="50" height="50" viewBox="0 0 50 50" fill="none" xmlns="http://www.w3.org/2000/svg">
<g clip-path="url(#clip0_2444_106)">
<rect width="50" height="50" fill="url(#paint0_linear_2444_106)"/>
<g clip-path="url(#clip1_2444_106)">
<path d="M78.9314 -18.4299C79.2708 -18.3811 79.6288 -17.7453 79.4529 -17.511C79.4257 -17.475 79.4271 -17.389 79.4675 -17.3303C79.6202 -17.0837 79.7567 -17.0655 80.2078 -17.2522C80.7614 -17.4749 81.2412 -17.4993 81.7849 -17.3342C82.8798 -16.9891 83.6925 -15.6331 83.4392 -14.5725C83.2936 -14.0047 82.8957 -13.288 82.5417 -12.9807C82.1441 -12.6404 81.4548 -12.3134 81.0369 -12.2708C80.8519 -12.2501 80.4853 -12.2629 80.2224 -12.301C79.9549 -12.3332 79.6616 -12.3189 79.5623 -12.262C79.2086 -12.0673 78.8753 -11.4992 78.0867 -9.70337C77.8674 -9.19988 77.0563 -7.48709 76.7634 -6.89868C76.6094 -6.58194 76.3171 -6.10634 76.1091 -5.83032L75.7332 -5.33228L75.1072 -5.39966C74.3543 -5.48704 73.4531 -5.36568 72.9294 -5.12036C72.1353 -4.7406 72.4837 -5.19065 61.0974 10.0818C55.3215 17.8216 49.3046 25.8692 47.7351 27.9519L44.8718 31.7507L44.9373 32.1394C45.0559 32.8684 45.5654 33.5906 46.3933 34.2146C46.8795 34.5809 47.7415 34.9858 48.2253 35.0681C48.6776 35.1548 49.4461 35.1221 49.7996 35.0027C50.2 34.871 51.2295 34.1789 52.0154 33.5105C53.0874 32.5873 53.7132 32.4189 54.405 32.8367C54.8748 33.1248 55.0983 33.5282 55.157 34.1746C55.2581 35.3141 54.3827 37.2242 53.197 38.448C52.3819 39.2924 50.2514 40.8961 49.3591 41.3435C48.0712 41.9914 47.2278 42.6356 46.4412 43.5671C45.4856 44.7103 44.9872 45.7844 44.6785 47.3679C44.4776 48.4212 44.0257 50.3955 43.6101 52.0583C43.0657 54.2167 42.3943 55.8563 41.3943 57.4832C40.5329 58.8761 38.9822 60.5219 37.8337 61.2468C35.3306 62.8329 32.0597 62.9276 29.0193 61.4929C27.7265 60.8857 26.7704 60.2683 24.6697 58.6853C22.677 57.1837 22.6583 57.1704 22.4792 57.2332C22.3321 57.2914 22.2957 57.3399 22.2712 57.5095C22.2239 57.8217 22.0256 57.8607 21.6716 57.6316C21.436 57.4823 21.388 57.4078 21.3914 57.241C21.3978 57.0578 21.421 57.0279 21.5623 57.0027C21.7709 56.9626 21.8069 56.9143 21.7849 56.6814C21.7702 56.5386 21.6803 56.4328 21.3142 56.157C20.0297 55.189 17.1846 52.4342 16.3123 51.3064C14.1376 48.5103 13.3826 44.7037 14.4841 42.1179C15.0009 40.9076 15.6683 39.9607 17.1013 38.3962C18.5403 36.8364 20.5498 35.4053 24.5349 33.1013C27.5868 31.3363 28.3791 30.7472 29.4294 29.4783C30.3459 28.3621 30.8569 27.3721 31.7205 25.0398C33.1344 21.2031 33.6447 20.0632 34.6658 18.4333C35.6885 16.8138 36.858 15.6996 38.2273 15.0564C39.1286 14.6346 39.7495 14.5097 40.406 14.6375C40.7981 14.7165 40.9856 14.7924 41.1521 14.946C41.3726 15.1405 41.5204 15.5647 41.4998 15.4998C41.4901 15.4662 41.6458 15.9396 41.6169 16.115C41.5742 16.3464 41.3747 16.723 40.8562 17.5359C39.9391 18.9902 39.521 19.7953 39.4041 20.3376C39.2947 20.8574 39.5453 22.3727 39.8474 22.9958C40.5386 24.4389 41.495 25.0941 42.6873 24.948C43.4943 24.8507 43.4181 24.9144 45.1453 22.7722C47.1078 20.3177 49.6428 17.1274 53.3992 12.3923C62.6094 0.756861 68.2593 -6.54113 68.2478 -6.77563C68.251 -6.86734 68.1697 -7.18338 68.0847 -7.48267C67.9952 -7.77592 67.9383 -8.10082 67.946 -8.19849C67.9874 -8.4779 68.3402 -8.90807 68.7615 -9.19263C68.9617 -9.33345 69.2226 -9.54195 69.3191 -9.65747C69.4863 -9.84194 69.4862 -9.8795 69.3738 -9.99243C69.2913 -10.0828 69.1759 -10.1038 69.0466 -10.0696C68.8451 -10.0144 68.8388 -10.0199 68.6111 -10.342C68.2953 -10.7963 68.3088 -10.8894 68.6667 -11.2024C69.2165 -11.6821 69.4712 -11.7076 69.7859 -11.301C69.9687 -11.0691 70.0263 -10.6957 69.8894 -10.6389C69.8535 -10.6284 69.8895 -10.5645 69.9734 -10.5012C70.0573 -10.438 70.147 -10.3697 70.1726 -10.3411C70.2086 -10.3139 71.3126 -11.0913 71.4226 -11.2249C71.495 -11.3209 71.1135 -11.5139 70.9255 -11.4768C70.7331 -11.4337 70.7331 -11.4341 70.5115 -11.7893C70.3872 -11.9865 70.2772 -12.1539 70.2712 -12.1584C70.2618 -12.1703 70.3498 -12.3001 70.4705 -12.4602C70.6061 -12.6402 70.7951 -12.79 71.0027 -12.8782C71.2957 -13.0051 71.3398 -13.0003 71.5632 -12.8225C71.8526 -12.5949 71.9988 -12.2394 71.8767 -12.0774C71.8182 -11.9996 71.8283 -11.9261 71.906 -11.8674C71.972 -11.8177 72.0447 -11.7636 72.0642 -11.7395C72.1071 -11.7086 73.1199 -12.3804 73.2361 -12.5208C73.3476 -12.6437 73.0914 -12.8652 72.8884 -12.8206C72.66 -12.767 72.5411 -12.8478 72.2986 -13.2375L72.1111 -13.5383L72.3982 -13.8684C72.588 -14.0828 72.7719 -14.227 72.9373 -14.2717C73.149 -14.3282 73.2209 -14.3108 73.4578 -14.1135C73.7547 -13.8709 73.8595 -13.5857 73.7195 -13.3997C73.6607 -13.3216 73.6803 -13.2599 73.8123 -13.1604C73.9863 -13.0292 74.0119 -13.0379 74.6111 -13.4709C74.9524 -13.7118 75.2294 -13.9169 75.2332 -13.9338C75.2257 -13.9489 75.1654 -14.0315 75.0935 -14.1233C74.9901 -14.2483 74.9222 -14.2718 74.7898 -14.2209C74.5762 -14.1373 74.4682 -14.2188 74.2332 -14.6311C74.0567 -14.9332 74.0568 -14.9709 74.2195 -15.1868C74.3145 -15.3128 74.5417 -15.4902 74.7283 -15.5754C75.0142 -15.7176 75.0944 -15.7228 75.282 -15.6096C75.6045 -15.4135 75.7554 -15.102 75.6482 -14.8723C75.5653 -14.6999 75.5771 -14.6531 75.7449 -14.5266C75.9309 -14.3864 75.9528 -14.3891 76.4812 -14.7532C76.7747 -14.9554 77.0544 -15.1403 77.0935 -15.1672C77.1323 -15.1945 77.1102 -15.3146 77.0339 -15.4377C76.9188 -15.6466 76.8902 -15.6585 76.698 -15.6155C76.4498 -15.5484 76.3292 -15.6389 76.1062 -16.0422L75.9324 -16.3616L76.2097 -16.6418C76.7535 -17.2012 77.0952 -17.2171 77.4607 -16.7161C77.606 -16.5218 77.6242 -16.4325 77.5457 -16.2659C77.4915 -16.1568 77.4685 -16.0522 77.4919 -16.0334C77.5159 -16.0154 77.604 -15.9209 77.6921 -15.8264L77.6931 -15.8254C77.84 -15.6583 77.8503 -15.6599 78.1228 -15.8967C78.2809 -16.0317 78.5526 -16.2414 78.7273 -16.3733C78.9709 -16.5469 79.0355 -16.6203 79.0027 -16.7014C78.94 -16.8804 78.7313 -16.9907 78.5388 -16.9475C78.3359 -16.903 78.2127 -17.015 77.9792 -17.4543C77.8912 -17.6241 77.9016 -17.701 78.0417 -17.887C78.2633 -18.181 78.733 -18.4663 78.9314 -18.4299ZM30.4998 40.9998C27.4624 40.9999 24.9999 43.4624 24.9998 46.4998C24.9998 49.5373 27.4623 51.9996 30.4998 51.9998C33.5373 51.9998 35.9998 49.5373 35.9998 46.4998C35.9996 43.4623 33.5373 40.9998 30.4998 40.9998ZM36.4998 35.9998C35.1192 35.9999 33.9999 37.1192 33.9998 38.4998C33.9998 39.8804 35.1191 40.9996 36.4998 40.9998C37.8805 40.9998 38.9998 39.8805 38.9998 38.4998C38.9996 37.1191 37.8804 35.9998 36.4998 35.9998Z" fill="white"/>
</g>
</g>
<defs>
<linearGradient id="paint0_linear_2444_106" x1="0" y1="25" x2="50" y2="25" gradientUnits="userSpaceOnUse">
<stop stop-color="#FF7575"/>
<stop offset="1" stop-color="#FF4141"/>
</linearGradient>
<clipPath id="clip0_2444_106">
<rect width="50" height="50" rx="10" fill="white"/>
</clipPath>
<clipPath id="clip1_2444_106">
<rect width="40" height="40" fill="white" transform="translate(14 14)"/>
</clipPath>
</defs>
</svg>
