<svg width="50" height="50" viewBox="0 0 50 50" fill="none" xmlns="http://www.w3.org/2000/svg">
<g clip-path="url(#clip0_2444_106)">
<rect width="50" height="50" fill="url(#paint0_linear_2444_106)"/>
<g clip-path="url(#clip1_2444_106)">
<path d="M97.6924 -4.3579C97.2152 -4.66646 96.7475 -4.77512 96.1539 -4.71365C95.6685 -4.65844 95.5421 -4.71376 95.4633 -4.99316C95.4406 -5.06075 95.463 -5.14346 95.499 -5.1706C95.7331 -5.34699 95.5646 -6.05758 95.2517 -6.19816C95.0711 -6.28793 94.5408 -6.14243 94.2467 -5.92081C94.0607 -5.7806 94.0293 -5.70988 94.0673 -5.52208C94.1706 -5.03532 94.2581 -4.89423 94.4655 -4.88117C94.6625 -4.86959 94.8327 -4.70614 94.8436 -4.51678C94.8529 -4.42962 94.7703 -4.37682 94.488 -4.27698C94.2837 -4.19835 93.9653 -4.07137 93.7762 -3.98527C93.4488 -3.83271 93.4383 -3.83419 93.3431 -4.03538C93.2843 -4.15099 93.2254 -4.2666 93.2073 -4.29061C93.1892 -4.31461 93.2401 -4.40942 93.3226 -4.49979C93.444 -4.63835 93.4513 -4.72856 93.3651 -4.95533C93.1519 -5.53804 92.8195 -5.61695 92.1425 -5.22912L91.7987 -5.03595L91.8777 -4.6814C91.9809 -4.23221 92.0714 -4.11216 92.3284 -4.10824C92.5253 -4.09666 92.5494 -4.07718 92.6026 -3.84432C92.642 -3.70462 92.6302 -3.58284 92.5852 -3.56771C92.5401 -3.55258 92.2202 -3.45264 91.8822 -3.33915C91.2739 -3.13485 91.2529 -3.13781 91.1127 -3.32387C90.986 -3.49193 90.9874 -3.54003 91.1149 -3.68311C91.2813 -3.87438 91.2219 -4.21545 90.9657 -4.49294C90.8166 -4.65343 90.7384 -4.66979 90.4243 -4.61196C90.2215 -4.58144 89.9542 -4.47411 89.8281 -4.37913C89.6121 -4.2163 89.6016 -4.18021 89.6881 -3.84071C89.8004 -3.37951 89.8818 -3.27148 90.1102 -3.29304C90.2515 -3.30538 90.3102 -3.26493 90.3751 -3.11628C90.419 -3.00815 90.4538 -2.91203 90.4568 -2.89551C90.4493 -2.88046 90.1264 -2.75948 89.7314 -2.6218C89.0361 -2.37071 89.009 -2.36915 88.8779 -2.54321C88.7784 -2.67525 88.7767 -2.73988 88.8547 -2.79867C89.0408 -2.93888 89.0191 -3.24246 88.8004 -3.55761C88.627 -3.81274 88.5623 -3.84867 88.3428 -3.85268C88.1714 -3.8553 87.9552 -3.76763 87.7135 -3.61376L87.3473 -3.37544L87.4443 -3.03446C87.5701 -2.59284 87.662 -2.48333 87.8965 -2.47184C88.104 -2.45878 88.2895 -2.17512 88.1484 -2.08762C87.9998 -1.98507 86.8373 -1.61718 86.8056 -1.65919C86.7935 -1.68772 86.7392 -1.75975 86.6895 -1.82577C86.6307 -1.9038 86.641 -1.97748 86.7191 -2.03627C86.8811 -2.15839 86.8382 -2.54007 86.6226 -2.8387C86.4567 -3.0713 86.4161 -3.08775 86.099 -3.04644C85.8751 -3.01888 85.6529 -2.92668 85.4728 -2.791C85.3107 -2.66888 85.1892 -2.5679 85.1983 -2.55589C85.2028 -2.54989 85.2619 -2.35913 85.327 -2.13532C85.4421 -1.73276 85.4421 -1.73276 85.6391 -1.72118C85.83 -1.70508 86.1433 -1.41419 86.0473 -1.34182C85.9047 -1.2438 84.6296 -0.800495 84.6024 -0.836508C84.5858 -0.871041 84.518 -0.961076 84.4547 -1.04511C84.3913 -1.12913 84.3746 -1.20124 84.4122 -1.20133C84.5595 -1.2182 84.6067 -1.59257 84.4949 -1.86588C84.3044 -2.34343 84.0533 -2.38946 83.3926 -2.07982C82.9617 -1.87743 82.9228 -1.79166 83.1014 -1.26749C83.2315 -0.895021 83.236 -0.889024 83.445 -0.886492C83.5787 -0.88379 83.6841 -0.831417 83.7384 -0.721815C83.8154 -0.582203 83.805 -0.546105 83.5933 -0.414856C83.4688 -0.3304 83.1609 -0.201938 82.9296 -0.121749C82.446 0.0356702 81.9883 0.352357 81.8716 0.60965C81.8372 0.701416 81.8019 1.02917 81.8071 1.33579C81.8063 1.64693 81.7981 1.97312 81.7697 2.06036C81.7161 2.28895 74.2732 7.74702 62.2125 16.3931C57.2964 19.9095 53.9799 22.2769 51.4168 24.0954C49.1657 25.6788 49.2573 25.638 48.4544 25.509C47.268 25.3208 46.5295 24.4282 46.2629 22.8505C46.1441 22.1684 46.321 20.6424 46.5694 20.1728C46.8314 19.6837 47.4552 19.0255 48.7377 17.8802C49.4607 17.2413 49.7561 16.934 49.8609 16.7233C49.9372 16.5623 50.0091 16.4704 50.0092 16.508C50.0138 16.5516 50.0979 16.5258 50.188 16.458C50.308 16.3675 50.4057 16.3598 50.5201 16.4242C50.794 16.5754 50.9694 16.3961 50.9474 15.9798C50.9272 15.6657 50.8985 15.6026 50.7495 15.5173C50.5945 15.4365 50.5389 15.4501 50.4415 15.5706C50.338 15.6956 50.2839 15.6987 50.1259 15.6014C50.0175 15.5325 49.9438 15.5221 49.9575 15.5777C50.0151 15.779 49.8947 15.7191 49.7363 15.4715C49.6186 15.2779 49.459 15.1535 49.1038 14.9694C48.5079 14.6656 47.8765 14.6144 46.8939 14.7715C45.4003 15.0124 43.9696 15.7612 42.54 17.036C41.109 18.3214 40.304 19.2762 37.887 22.5749C36.4141 24.5789 35.6508 25.3893 34.4622 26.2097C33.1026 27.1402 32.179 27.488 28.7584 28.3435C24.2922 29.4599 21.9658 30.2813 20.1526 31.3842C18.3439 32.4931 17.4422 33.2196 16.6118 34.2406C14.8401 36.4226 14.5167 40.2893 15.8363 43.5765C16.3639 44.9011 18.3393 48.3341 19.3072 49.6186C19.5831 49.9847 19.6405 50.1108 19.6152 50.2522C19.5722 50.4823 19.5241 50.5184 19.3122 50.4994C19.1693 50.4847 19.1393 50.5073 19.0826 50.6818C19.0334 50.8412 19.0591 50.9253 19.2445 51.1338C19.5218 51.4519 19.7232 51.4694 19.8548 51.1821C19.9251 51.0256 19.9731 50.9894 20.1309 50.974C20.3203 50.9631 20.3339 50.9811 21.8355 52.9738C23.4185 55.0745 24.1674 55.931 25.2428 56.871C27.77 59.0884 30.9403 59.8988 33.7838 59.0642C35.0876 58.6839 37.0315 57.5297 38.2435 56.4282C39.6535 55.1398 40.7506 53.7485 41.869 51.8235C42.7269 50.3395 43.7059 48.5666 44.1892 47.6096C44.9225 46.1725 45.6975 45.2779 46.9312 44.4424C47.9442 43.7637 48.9324 43.3766 50.3492 43.1089C51.3303 42.9248 53.8202 41.9707 54.8365 41.3837C56.3136 40.5341 57.6808 38.9392 57.8977 37.8159C58.0195 37.1783 57.9163 36.7291 57.5441 36.3226C56.9941 35.7302 56.3462 35.7196 55.0609 36.3117C54.121 36.7377 52.9404 37.1192 52.5196 37.1352C52.1469 37.1526 51.3994 36.9724 50.9886 36.7644C50.5462 36.552 49.8293 35.9253 49.463 35.4391C48.8388 34.6108 48.5483 33.7758 48.6353 33.0421L48.6795 32.6512L52.4789 29.7882C54.5616 28.2187 62.5637 22.1416 70.2493 16.2937C85.4058 4.75015 84.9451 5.08788 85.8135 4.94161C86.3845 4.85013 87.2836 4.98187 87.9832 5.27338L88.567 5.51104L89.0651 5.13564C89.3412 4.92759 89.7537 4.55088 89.9891 4.28881C90.4329 3.80381 91.6848 2.38055 92.034 1.95739C93.2872 0.448447 93.7641 -0.00506472 94.1578 -0.0946406C94.2689 -0.121949 94.5547 -0.0549557 94.8029 0.0496967C95.0451 0.158872 95.3941 0.272316 95.5776 0.303464C95.9911 0.37768 96.7439 0.252712 97.2198 0.0351865C97.6448 -0.162683 98.2251 -0.741184 98.5216 -1.24689C99.0576 -2.19656 98.6498 -3.72427 97.6924 -4.3579Z" fill="white"/>
</g>
</g>
<defs>
<linearGradient id="paint0_linear_2444_106" x1="0" y1="25" x2="50" y2="25" gradientUnits="userSpaceOnUse">
<stop stop-color="#FF7575"/>
<stop offset="1" stop-color="#FF4141"/>
</linearGradient>
<clipPath id="clip0_2444_106">
<rect width="50" height="50" rx="10" fill="white"/>
</clipPath>
<clipPath id="clip1_2444_106">
<rect width="40" height="40" fill="white" transform="translate(14 14)"/>
</clipPath>
</defs>
</svg>
