<svg width="50" height="50" viewBox="0 0 50 50" fill="none" xmlns="http://www.w3.org/2000/svg">
<g clip-path="url(#clip0_2444_34)">
<rect width="50" height="50" fill="url(#paint0_linear_2444_34)"/>
<rect width="12" height="20" rx="6" transform="matrix(1 0 0 -1 39 53)" fill="white"/>
<rect width="12" height="20" rx="6" transform="matrix(1 0 0 -1 17 53)" fill="white"/>
<path d="M34 14C37.9556 14 41.8223 15.1735 45.1113 17.3711C48.4002 19.5687 50.9638 22.6922 52.4775 26.3467C53.4681 28.7381 53.9768 31.2865 53.9961 33.8496C53.9979 33.8995 54 33.9496 54 34V43C54 44.4802 53.1951 45.7711 52 46.4629V39C52 35.4069 49.2926 32.4469 45.8066 32.0469C45.6584 31.1501 45.409 30.2684 45.0576 29.4199C44.1518 27.233 42.6175 25.3639 40.6494 24.0488C38.6812 22.7337 36.3672 22.0313 34 22.0312C31.6328 22.0312 29.3188 22.7337 27.3506 24.0488C25.3825 25.3639 23.8482 27.233 22.9424 29.4199C22.5909 30.2684 22.3407 31.1501 22.1924 32.0469C18.7068 32.4473 16 35.4072 16 39V46.4629C14.8049 45.7711 14 44.4802 14 43V34.1025C14 34.0643 14.0009 34.0262 14.002 33.9883C14.0035 31.3785 14.5141 28.7812 15.5225 26.3467C17.0362 22.6922 19.5998 19.5687 22.8887 17.3711C26.1777 15.1735 30.0444 14 34 14Z" fill="white"/>
</g>
<defs>
<linearGradient id="paint0_linear_2444_34" x1="0" y1="25" x2="50" y2="25" gradientUnits="userSpaceOnUse">
<stop stop-color="#FF7575"/>
<stop offset="1" stop-color="#FF4141"/>
</linearGradient>
<clipPath id="clip0_2444_34">
<rect width="50" height="50" rx="10" fill="white"/>
</clipPath>
</defs>
</svg>
