<svg width="50" height="50" viewBox="0 0 50 50" fill="none" xmlns="http://www.w3.org/2000/svg">
<g clip-path="url(#clip0_2444_34)">
<rect width="50" height="50" fill="url(#paint0_linear_2444_34)"/>
<rect width="12" height="20" rx="6" transform="matrix(1 0 0 -1 39 53)" fill="white"/>
<rect width="12" height="20" rx="6" transform="matrix(1 0 0 -1 17 53)" fill="white"/>
<path d="M34 14C37.9556 14 41.8223 15.1735 45.1113 17.3711C48.4002 19.5687 50.9638 22.6922 52.4775 26.3467C53.3716 28.5052 53.8717 30.7919 53.9756 33.1016C53.9904 33.2324 54 33.3652 54 33.5V43.5C54 44.8962 53.1825 46.1013 52 46.6631V39C52 35.8604 49.9333 33.203 47.0859 32.3154C46.9381 31.165 46.642 30.0324 46.1934 28.9492C45.1944 26.5377 43.5024 24.4765 41.332 23.0264C39.1617 21.5763 36.6102 20.8018 34 20.8018C31.3898 20.8018 28.8383 21.5763 26.668 23.0264C24.4976 24.4765 22.8056 26.5377 21.8066 28.9492C21.358 30.0324 21.0601 31.1649 20.9121 32.3154C18.0657 33.2035 16 35.8611 16 39V46.6631C14.8175 46.1013 14 44.8962 14 43.5V33.5898C14 33.4659 14.0063 33.3434 14.0186 33.2227C14.11 30.8718 14.6128 28.543 15.5225 26.3467C17.0362 22.6922 19.5998 19.5687 22.8887 17.3711C26.1777 15.1735 30.0444 14 34 14Z" fill="white"/>
</g>
<defs>
<linearGradient id="paint0_linear_2444_34" x1="0" y1="25" x2="50" y2="25" gradientUnits="userSpaceOnUse">
<stop stop-color="#FF7575"/>
<stop offset="1" stop-color="#FF4141"/>
</linearGradient>
<clipPath id="clip0_2444_34">
<rect width="50" height="50" rx="10" fill="white"/>
</clipPath>
</defs>
</svg>
