<svg width="50" height="50" viewBox="0 0 50 50" fill="none" xmlns="http://www.w3.org/2000/svg">
<g clip-path="url(#clip0_2444_19)">
<rect width="50" height="50" fill="url(#paint0_linear_2444_19)"/>
<rect x="24" y="14" width="20" height="30" rx="10" fill="white"/>
<path d="M17.8906 34C15.7419 34 13.9618 35.7581 14.3772 37.8662C15.1387 41.7311 17.0317 45.316 19.8579 48.1421C23.6086 51.8929 28.6957 54 34 54C39.3043 54 44.3914 51.8929 48.1421 48.1421C50.9683 45.316 52.8613 41.7311 53.6228 37.8662C54.0382 35.7581 52.2581 34 50.1094 34V34C47.9607 34 46.2773 35.7846 45.6046 37.8253C45.0119 39.6233 44.0038 41.2762 42.64 42.64C40.3485 44.9315 37.2406 46.2188 34 46.2188C30.7594 46.2188 27.6515 44.9315 25.36 42.64C23.9962 41.2762 22.9881 39.6233 22.3954 37.8253C21.7227 35.7846 20.0393 34 17.8906 34V34Z" fill="white"/>
</g>
<defs>
<linearGradient id="paint0_linear_2444_19" x1="0" y1="25" x2="50" y2="25" gradientUnits="userSpaceOnUse">
<stop stop-color="#FF7575"/>
<stop offset="1" stop-color="#FF4141"/>
</linearGradient>
<clipPath id="clip0_2444_19">
<rect width="50" height="50" rx="10" fill="white"/>
</clipPath>
</defs>
</svg>
