<svg width="50" height="50" viewBox="0 0 50 50" fill="none" xmlns="http://www.w3.org/2000/svg">
<g clip-path="url(#clip0_2444_74)">
<rect width="50" height="50" fill="url(#paint0_linear_2444_74)"/>
<path d="M47 14C49.2091 14 51 15.7909 51 18V51.2852C51 53.4943 49.2091 55.2852 47 55.2852H21C18.7909 55.2852 17 53.4943 17 51.2852V18C17 15.7909 18.7909 14 21 14H47ZM34 28.5713C27.2939 28.5714 21.8576 34.0078 21.8574 40.7139C21.8575 47.42 27.2939 52.8573 34 52.8574C40.7061 52.8573 46.1435 47.42 46.1436 40.7139C46.1434 34.0078 40.7061 28.5714 34 28.5713ZM34 32.2139C38.6942 32.214 42.4999 36.0197 42.5 40.7139C42.4999 45.4081 38.6942 49.2137 34 49.2139C29.3057 49.2137 25.5001 45.4081 25.5 40.7139C25.5001 36.0196 29.3058 32.214 34 32.2139ZM34 16.4287C31.3176 16.4289 29.1426 18.6037 29.1426 21.2861C29.143 23.9682 31.3178 26.1424 34 26.1426C36.6822 26.1424 38.8561 23.9682 38.8564 21.2861C38.8564 18.6037 36.6824 16.4289 34 16.4287ZM34 18.8574C35.3412 18.8576 36.4287 19.945 36.4287 21.2861C36.4283 22.627 35.3409 23.7147 34 23.7148C32.6591 23.7147 31.5717 22.627 31.5713 21.2861C31.5713 19.945 32.6589 18.8576 34 18.8574Z" fill="white"/>
</g>
<defs>
<linearGradient id="paint0_linear_2444_74" x1="0" y1="25" x2="50" y2="25" gradientUnits="userSpaceOnUse">
<stop stop-color="#FF7575"/>
<stop offset="1" stop-color="#FF4141"/>
</linearGradient>
<clipPath id="clip0_2444_74">
<rect width="50" height="50" rx="10" fill="white"/>
</clipPath>
</defs>
</svg>
