<svg width="24" height="24" viewBox="0 0 24 24" fill="none" xmlns="http://www.w3.org/2000/svg">
<path d="M15.9287 4.67285C16.2915 4.71143 16.5874 4.87796 16.8369 5.06836C17.1047 5.27271 17.3957 5.5656 17.7139 5.88379L18.1162 6.28613L18.5664 6.74414C18.7049 6.89002 18.8295 7.02928 18.9316 7.16309C19.1492 7.44818 19.3359 7.79359 19.3359 8.23047C19.3359 8.66749 19.1492 9.01269 18.9316 9.29785C18.8294 9.43183 18.7051 9.57169 18.5664 9.71777L18.1162 10.1758L10.2295 18.0615C10.1047 18.1864 9.97381 18.3221 9.82031 18.4365L9.6582 18.543C9.54462 18.6072 9.4252 18.6532 9.30566 18.6904L8.95215 18.7852L5.99023 19.5254C5.8342 19.5644 5.63429 19.617 5.46289 19.6338C5.28218 19.6515 4.92581 19.6524 4.63672 19.3633C4.34762 19.0742 4.34853 18.7178 4.36621 18.5371C4.38298 18.3657 4.4356 18.1658 4.47461 18.0098L5.21484 15.0479L5.30957 14.6943C5.34682 14.5748 5.39277 14.4554 5.45703 14.3418L5.56348 14.1797C5.67789 14.0262 5.81365 13.8953 5.93848 13.7705L13.8242 5.88379L14.2822 5.43359C14.4283 5.29488 14.5682 5.17059 14.7021 5.06836C14.9873 4.85079 15.3325 4.66406 15.7695 4.66406L15.9287 4.67285Z" stroke="white" stroke-width="1.5"/>
<path d="M13 7L17 11" stroke="white" stroke-width="1.5"/>
</svg>
