<svg width="333" height="79" viewBox="0 0 333 79" fill="none" xmlns="http://www.w3.org/2000/svg">
<g filter="url(#filter0_d_137_255)">
<path d="M79.6613 18.344H27.4373V28.424C30.7013 28.488 35.5973 28.52 42.1253 28.52C53.3893 28.52 64.8453 28.328 76.4933 27.944V46.76C64.8453 46.312 52.5573 46.088 39.6293 46.088C34.2533 46.088 30.1893 46.12 27.4373 46.184V70.088H4.78125C5.29325 57.672 5.54925 46.056 5.54925 35.24C5.54925 24.424 5.29325 12.808 4.78125 0.391968H79.6613V18.344Z" fill="white"/>
<path d="M137.487 70.088C134.479 64.648 129.487 56.328 122.511 45.128L111.279 56.264V70.088H87.375C87.887 57.672 88.143 46.056 88.143 35.24C88.143 24.424 87.887 12.808 87.375 0.391968H111.279V28.52C123.055 16.872 131.439 7.49597 136.431 0.391968H167.535L137.295 30.344C141.775 36.616 146.799 43.432 152.367 50.792C157.999 58.152 163.087 64.584 167.631 70.088H137.487Z" fill="white"/>
<path d="M198.736 50.696C217.296 50.568 232.656 50.248 244.816 49.736C243.984 53 243.473 56.136 243.281 59.144C243.089 62.152 242.993 65.8 242.993 70.088H175.312C175.824 57.672 176.081 46.056 176.081 35.24C176.081 24.424 175.824 12.808 175.312 0.391968H198.736V50.696Z" fill="white"/>
<path fill-rule="evenodd" clip-rule="evenodd" d="M306.85 35.432C321.442 35.432 328.738 40.072 328.738 49.352C328.738 53.704 327.746 57.416 325.762 60.488C323.778 63.496 320.226 65.864 315.106 67.592C309.986 69.256 302.882 70.088 293.794 70.088H250.594C251.106 57.672 251.362 46.056 251.362 35.24C251.362 24.424 251.106 12.808 250.594 0.391968H273.154V0.487967H293.602C301.538 0.487967 307.778 1.15997 312.322 2.50396C316.93 3.78397 320.162 5.67197 322.018 8.16796C323.938 10.664 324.898 13.832 324.898 17.672C324.898 21.576 323.522 25.064 320.77 28.136C318.082 31.144 313.442 33.576 306.85 35.432ZM273.154 17.96V26.888H291.586C295.554 26.888 298.306 26.536 299.842 25.832C301.442 25.128 302.242 23.848 302.242 21.992C302.242 20.52 301.41 19.496 299.746 18.92C298.146 18.28 295.426 17.96 291.586 17.96H273.154ZM291.586 52.52C294.914 52.52 297.442 52.392 299.17 52.136C300.962 51.816 302.242 51.304 303.01 50.6C303.778 49.832 304.162 48.808 304.162 47.528C304.162 45.864 303.234 44.68 301.378 43.976C299.586 43.208 296.322 42.824 291.586 42.824H273.154V52.52H291.586Z" fill="white"/>
</g>
<defs>
<filter id="filter0_d_137_255" x="0.78125" y="0.391968" width="331.957" height="77.696" filterUnits="userSpaceOnUse" color-interpolation-filters="sRGB">
<feFlood flood-opacity="0" result="BackgroundImageFix"/>
<feColorMatrix in="SourceAlpha" type="matrix" values="0 0 0 0 0 0 0 0 0 0 0 0 0 0 0 0 0 0 127 0" result="hardAlpha"/>
<feOffset dy="4"/>
<feGaussianBlur stdDeviation="2"/>
<feComposite in2="hardAlpha" operator="out"/>
<feColorMatrix type="matrix" values="0 0 0 0 0 0 0 0 0 0 0 0 0 0 0 0 0 0 0.25 0"/>
<feBlend mode="normal" in2="BackgroundImageFix" result="effect1_dropShadow_137_255"/>
<feBlend mode="normal" in="SourceGraphic" in2="effect1_dropShadow_137_255" result="shape"/>
</filter>
</defs>
</svg>
