<svg width="589" height="78" viewBox="0 0 589 78" fill="none" xmlns="http://www.w3.org/2000/svg">
<g filter="url(#filter0_d_137_253)">
<path d="M79.0111 17.952H26.7871V28.032C30.0511 28.096 34.9471 28.128 41.4751 28.128C52.7391 28.128 64.1951 27.936 75.8431 27.552V46.368C64.1951 45.92 51.9071 45.696 38.9791 45.696C33.6031 45.696 29.5391 45.728 26.7871 45.792V69.696H4.13113C4.64313 57.28 4.89913 45.664 4.89913 34.848C4.89913 24.032 4.64313 12.416 4.13113 0H79.0111V17.952Z" fill="white"/>
<path d="M141.582 69.696C140.366 66.048 138.734 61.472 136.686 55.968H136.64L131.16 40.992H131.214C128.782 34.272 126.286 27.552 123.726 20.832L121.422 14.592C119.182 20.416 115.886 29.216 111.534 40.992H111.578L106.099 55.968H106.062L105.266 58.244L104.369 60.696H104.409L101.262 69.696H77.1661L104.046 0H139.374L166.446 69.696H141.582Z" fill="white"/>
<path d="M219.806 69.696C216.798 64.256 211.806 55.936 204.83 44.736L193.598 55.872V69.696H169.694C170.206 57.28 170.462 45.664 170.462 34.848C170.462 24.032 170.206 12.416 169.694 0H193.598V28.128C205.374 16.48 213.758 7.104 218.75 0H249.854L219.614 29.952C224.094 36.224 229.118 43.04 234.686 50.4C240.318 57.76 245.406 64.192 249.95 69.696H219.806Z" fill="white"/>
<path d="M280.287 52.128C304.607 52 322.239 51.648 333.183 51.072C332.735 53.696 332.447 56.416 332.319 59.232C332.255 61.984 332.223 65.472 332.223 69.696H257.631C258.143 57.28 258.399 45.664 258.399 34.848C258.399 24.032 258.143 12.416 257.631 0H332.223V17.376H280.287V26.592C283.359 26.656 287.903 26.688 293.919 26.688C304.095 26.688 314.623 26.496 325.503 26.112V42.624C314.623 42.24 304.095 42.048 293.919 42.048C287.903 42.048 283.359 42.08 280.287 42.144V52.128Z" fill="white"/>
<path d="M364.305 50.304C382.865 50.176 398.225 49.856 410.385 49.344C409.553 52.608 409.041 55.744 408.849 58.752C408.657 61.76 408.561 65.408 408.561 69.696H340.881C341.393 57.28 341.649 45.664 341.649 34.848C341.649 24.032 341.393 12.416 340.881 0H364.305V50.304Z" fill="white"/>
<path d="M478.613 69.696C477.397 66.048 475.765 61.472 473.717 55.968H473.639L468.16 40.992H468.245C465.813 34.272 463.317 27.552 460.757 20.832L458.453 14.592C456.213 20.416 452.917 29.216 448.565 40.992H448.578L443.099 55.968H443.093L442.972 56.3158L441.369 60.696H441.44L438.293 69.696H414.197L441.077 0H476.405L503.477 69.696H478.613Z" fill="white"/>
<path fill-rule="evenodd" clip-rule="evenodd" d="M562.981 35.04C577.573 35.04 584.869 39.68 584.869 48.96C584.869 53.312 583.877 57.024 581.893 60.096C579.909 63.104 576.357 65.472 571.237 67.2C566.117 68.864 559.013 69.696 549.925 69.696H506.725C507.237 57.28 507.493 45.664 507.493 34.848C507.493 24.032 507.237 12.416 506.725 0H529.285V0.0959988H549.733C557.669 0.0959988 563.909 0.767998 568.453 2.112C573.061 3.392 576.293 5.28 578.149 7.776C580.069 10.272 581.029 13.44 581.029 17.28C581.029 21.184 579.653 24.672 576.901 27.744C574.213 30.752 569.573 33.184 562.981 35.04ZM529.285 17.568V26.496H547.717C551.685 26.496 554.437 26.144 555.973 25.44C557.573 24.736 558.373 23.456 558.373 21.6C558.373 20.128 557.541 19.104 555.877 18.528C554.277 17.888 551.557 17.568 547.717 17.568H529.285ZM547.717 52.128C551.045 52.128 553.573 52 555.301 51.744C557.093 51.424 558.373 50.912 559.141 50.208C559.909 49.44 560.293 48.416 560.293 47.136C560.293 45.472 559.365 44.288 557.509 43.584C555.717 42.816 552.453 42.432 547.717 42.432H529.285V52.128H547.717Z" fill="white"/>
</g>
<defs>
<filter id="filter0_d_137_253" x="0.131134" y="0" width="588.738" height="77.696" filterUnits="userSpaceOnUse" color-interpolation-filters="sRGB">
<feFlood flood-opacity="0" result="BackgroundImageFix"/>
<feColorMatrix in="SourceAlpha" type="matrix" values="0 0 0 0 0 0 0 0 0 0 0 0 0 0 0 0 0 0 127 0" result="hardAlpha"/>
<feOffset dy="4"/>
<feGaussianBlur stdDeviation="2"/>
<feComposite in2="hardAlpha" operator="out"/>
<feColorMatrix type="matrix" values="0 0 0 0 0 0 0 0 0 0 0 0 0 0 0 0 0 0 0.25 0"/>
<feBlend mode="normal" in2="BackgroundImageFix" result="effect1_dropShadow_137_253"/>
<feBlend mode="normal" in="SourceGraphic" in2="effect1_dropShadow_137_253" result="shape"/>
</filter>
</defs>
</svg>
