<svg width="24" height="24" viewBox="0 0 24 24" fill="none" xmlns="http://www.w3.org/2000/svg">
<path d="M12 22V13.1111M12 22L3.94946 17.0305C3.48543 16.7441 3.25342 16.6009 3.12671 16.3738C3 16.1466 3 15.874 3 15.3287V7.55556M12 22L16.5 19.2222L20.0505 17.0305C20.5146 16.7441 20.7466 16.6009 20.8733 16.3738C21 16.1466 21 15.874 21 15.3287V7.55556M12 13.1111L3 7.55556M12 13.1111L21 7.55556M3 7.55556L10.9495 2.64848C11.4606 2.33294 11.7162 2.17518 12 2.17518C12.2838 2.17518 12.5394 2.33294 13.0505 2.64848L21 7.55556" stroke="white" stroke-width="1.5" stroke-linejoin="round"/>
<path d="M16.25 15C16.25 15.4142 16.5858 15.75 17 15.75C17.4142 15.75 17.75 15.4142 17.75 15H16.25ZM16.8733 10.6262L17.5283 10.2608L16.8733 10.6262ZM7.60605 5.6382L15.6566 10.6077L16.4445 9.33127L8.39395 4.3618L7.60605 5.6382ZM17.75 15V11.6713H16.25V15H17.75ZM15.6566 10.6077C15.9007 10.7583 16.0386 10.8444 16.1352 10.9177C16.1784 10.9505 16.1998 10.9708 16.2099 10.9816C16.2147 10.9867 16.2168 10.9895 16.2175 10.9904C16.2181 10.9912 16.2182 10.9914 16.2183 10.9916L17.5283 10.2608C17.3969 10.0254 17.2216 9.85902 17.0416 9.72254C16.8745 9.59576 16.6644 9.46703 16.4445 9.33127L15.6566 10.6077ZM17.75 11.6713C17.75 11.4129 17.7508 11.1665 17.7307 10.9577C17.7091 10.7329 17.6596 10.4963 17.5283 10.2608L16.2183 10.9916C16.2184 10.9919 16.2186 10.9921 16.2189 10.993C16.2194 10.994 16.2206 10.9974 16.2225 11.0041C16.2263 11.0184 16.2324 11.0472 16.2376 11.1013C16.2492 11.2219 16.25 11.3845 16.25 11.6713H17.75Z" fill="white"/>
</svg>
