<svg width="24" height="24" viewBox="0 0 24 24" fill="none" xmlns="http://www.w3.org/2000/svg">
<path d="M4 12.2443C4 10.6368 4 9.83311 4.31367 9.12664C4.62734 8.42017 5.21642 7.89711 6.39457 6.85101L7.53743 5.83624C9.66694 3.94541 10.7317 3 12 3C13.2683 3 14.3331 3.94541 16.4626 5.83624L17.6054 6.85101C18.7836 7.89711 19.3727 8.42017 19.6863 9.12664C20 9.83311 20 10.6368 20 12.2443V17.2644C20 19.4968 20 20.613 19.3305 21.3065C18.6611 22 17.5836 22 15.4286 22H8.57143C6.41644 22 5.33894 22 4.66947 21.3065C4 20.613 4 19.4968 4 17.2644V12.2443Z" stroke="white" stroke-width="1.5"/>
<path d="M15.2 21.8V15.8C15.2 15.2477 14.7523 14.8 14.2 14.8H10.2C9.64773 14.8 9.20001 15.2477 9.20001 15.8V21.8" stroke="white" stroke-width="1.5" stroke-linecap="round" stroke-linejoin="round"/>
</svg>
