<svg width="24" height="24" viewBox="0 0 24 24" fill="none" xmlns="http://www.w3.org/2000/svg">
<path d="M8.42372 7.70868C8.1539 6.83113 7.42149 6.92731 6.92072 7.33603C5.68715 8.42992 4.08095 10.7259 5.10893 14.0321C5.96985 16.8329 9.55215 18.624 9.55215 18.624H5.37614C5.37614 18.624 3.21989 16.304 3.02714 13.5753C2.783 10.1253 4.22228 7.94948 5.89273 6.53106C7.46038 5.19672 8.95094 4.80005 8.95094 4.80005L12 14.3904L15.0491 4.80005C15.0491 4.80005 16.5396 5.19673 18.1073 6.53106C19.7777 7.94948 21.217 10.1253 20.9729 13.5753C20.7801 16.304 18.6239 18.624 18.6239 18.624H14.4478C14.4478 18.624 18.0299 16.8329 18.8911 14.0321C19.919 10.7263 18.3128 8.4303 17.0793 7.33603C16.5781 6.92731 15.8457 6.83113 15.5763 7.70868C14.6511 10.5096 12.0004 18.5347 12.0004 18.5347C12.0004 18.5347 9.3489 10.5069 8.42372 7.70868Z" fill="#FF7575"/>
</svg>
