<svg width="24" height="25" viewBox="0 0 24 25" fill="none" xmlns="http://www.w3.org/2000/svg">
<path d="M8.42372 8.02982C8.1539 7.11571 7.42149 7.2159 6.92072 7.64165C5.68715 8.78112 4.08095 11.1728 5.10893 14.6167C5.96985 17.5342 9.55215 19.4 9.55215 19.4H5.37614C5.37614 19.4 3.21989 16.9833 3.02714 14.1409C2.783 10.5471 4.22228 8.28066 5.89273 6.80314C7.46038 5.4132 8.95094 5 8.95094 5L12 14.99L15.0491 5C15.0491 5 16.5396 5.41321 18.1073 6.80314C19.7777 8.28066 21.217 10.5471 20.9729 14.1409C20.7801 16.9833 18.6239 19.4 18.6239 19.4H14.4478C14.4478 19.4 18.0299 17.5342 18.8911 14.6167C19.919 11.1732 18.3128 8.78151 17.0793 7.64165C16.5781 7.2159 15.8457 7.11571 15.5763 8.02982C14.6511 10.9474 12.0004 19.3069 12.0004 19.3069C12.0004 19.3069 9.34966 10.9446 8.42448 8.02982H8.42372Z" fill="#FF7575"/>
</svg>
